<svg width="198" height="201" viewBox="0 0 198 201" fill="none" xmlns="http://www.w3.org/2000/svg">
<title>Théâtre du Rond-Point</title>
<path d="M86.2367 15.0498C84.3296 16.323 81.7868 16.5049 79.8797 15.5045C79.5165 15.3226 79.5165 14.777 79.8797 14.777C82.9704 13.7453 85.4117 11.8195 87.8176 9.92179L88.2346 9.59315C90.959 7.41049 93.5018 5.13689 95.318 2.13574C95.6813 1.49913 96.4986 0.680627 97.1343 0.316851C97.5884 0.0440181 98.4965 -0.137869 98.769 0.134963C99.1322 0.49874 99.3138 1.31724 99.1322 1.8629C98.4057 4.59122 96.5894 7.13766 94.4099 8.8656C91.6855 10.9573 88.9611 13.049 86.2367 15.0498Z" fill="currentColor"/>
<path d="M109.485 15.9593C110.121 15.9593 110.757 15.8683 111.302 15.7774C111.554 15.7353 111.81 15.6997 112.068 15.6639C113.481 15.4678 114.935 15.2661 115.933 13.9585C116.569 13.14 117.205 12.2305 117.84 11.3211C118.218 10.8294 118.611 10.3376 119.021 9.82623L119.023 9.82338C119.597 9.10613 120.201 8.3502 120.837 7.50145C120.962 7.77582 121.079 8.02967 121.19 8.26862L121.195 8.27822L121.197 8.28356L121.199 8.28671L121.199 8.28866L121.2 8.29044C121.489 8.91292 121.731 9.43512 121.927 9.95694C122.744 11.5939 123.652 13.14 125.469 13.8675C125.832 14.0494 126.195 14.2768 126.558 14.5041C126.922 14.7315 127.285 14.9589 127.648 15.1408C128.37 15.5425 128.88 15.1633 129.427 14.7559C129.499 14.7023 129.572 14.6479 129.646 14.5951C130.128 14.2502 129.983 14.01 129.806 13.7156C129.75 13.622 129.69 13.5226 129.646 13.4128C129.374 12.8671 129.091 12.3214 128.808 11.7757C128.243 10.6844 127.678 9.59314 127.194 8.50184C126.876 7.81985 126.649 7.09239 126.422 6.36494C126.195 5.63738 125.968 4.90954 125.65 4.22746C125.105 2.95424 123.38 2.13575 122.381 2.59047C120.746 3.22708 119.202 4.04557 118.385 5.68257C118.203 6.04634 117.941 6.32927 117.679 6.61221C117.548 6.75368 117.416 6.89515 117.295 7.04673C116.66 7.77428 116.047 8.52457 115.434 9.27486C114.821 10.0252 114.208 10.7754 113.572 11.503C113.437 11.638 113.302 11.7842 113.166 11.9318C112.752 12.3809 112.325 12.8437 111.847 13.049C110.666 13.5038 109.849 14.2313 109.031 15.1408C108.941 15.5955 109.122 15.9593 109.485 15.9593Z" fill="currentColor"/>
<path fill-rule="evenodd" clip-rule="evenodd" d="M192.58 68.5249C192.398 68.2521 191.944 68.1612 191.581 68.1612C191.399 68.1612 191.127 68.6159 191.036 68.8887C190.715 70.3678 190.485 70.7555 190.024 71.531C189.834 71.8522 189.603 72.24 189.311 72.7993C188.917 73.587 188.646 74.2006 188.407 74.7398C187.874 75.9438 187.506 76.7766 186.314 78.3469C185.042 79.9839 181.501 80.8024 179.775 79.1654C178.414 77.8823 178.324 76.6699 178.197 74.9671C178.18 74.7388 178.162 74.5017 178.141 74.2544C178.05 73.1631 178.322 71.4352 178.322 71.4352C178.322 71.4352 179.594 70.071 179.866 69.9801C182.318 68.6159 183.408 67.4336 184.952 65.3419C185.327 64.8091 185.983 64.0064 186.708 63.1197C188.085 61.4333 189.711 59.4434 190.128 58.4302C190.764 56.8841 190.855 55.2471 189.674 54.5196C189.32 54.3171 189.023 54.0302 188.719 53.7371C188.477 53.5036 188.23 53.2661 187.949 53.0644C187.676 52.8826 185.86 52.0641 185.587 52.0641C184.604 52.1822 183.826 52.2321 183.074 52.2803C182.09 52.3434 181.153 52.4035 179.866 52.6097C179.684 52.6097 177.687 53.7011 177.596 53.8829C177.323 54.4286 177.051 55.0652 176.778 55.7018C175.87 58.2483 174.236 64.2506 174.145 66.9789C174.145 67.6155 174.054 68.5249 174.054 68.5249C174.054 68.5249 173.328 69.7982 172.964 70.3438C171.98 71.9867 171.517 72.395 170.548 73.25C170.176 73.5782 169.73 73.9723 169.15 74.5273C168.914 74.7491 168.692 74.9613 168.481 75.1627C167.397 76.2 166.612 76.951 165.699 77.2556C164.609 77.6194 164.155 76.4371 164.065 75.5276C163.792 73.1631 163.701 70.6167 164.155 68.3431C164.823 65.2218 165.006 64.5296 165.596 62.2967L165.596 62.2932L165.6 62.2809L165.6 62.2784C165.731 61.783 165.882 61.2117 166.062 60.5219C166.56 58.6207 167.034 56.7872 167.509 54.954L167.511 54.9479L167.514 54.9363L167.516 54.927C167.993 53.086 168.469 51.245 168.968 49.3357C169.15 48.5172 169.15 47.8806 168.424 47.0621C167.243 45.698 166.517 45.3342 164.882 44.8795C162.884 44.3338 160.886 43.7881 158.888 43.0606C156.981 42.333 156.436 40.5141 157.254 38.7862C157.798 37.7858 157.617 37.3311 156.527 37.2402C155.937 37.1947 155.347 37.172 154.756 37.1492C154.166 37.1265 153.576 37.1038 152.985 37.0583C152.804 37.0583 152.622 37.1492 152.44 37.2402C150.987 37.8768 150.715 40.1504 151.986 41.5145C152.804 42.333 153.167 43.2425 153.167 43.2425C153.065 43.4815 152.924 43.8873 152.769 44.3346C152.511 45.0781 152.213 45.9373 151.986 46.3346C151.579 47.1503 151.172 47.9717 150.763 48.7959C149.532 51.2797 148.287 53.7892 146.992 56.2475C144.994 59.8853 142.814 63.523 139.999 66.7061C139.868 66.8537 139.722 67.0279 139.568 67.2123L139.566 67.2149L139.564 67.2166C138.864 68.0536 137.993 69.0954 137.547 68.7978C136.911 68.434 136.457 67.7065 136.457 67.2517C136.54 66.2315 136.564 65.2279 136.588 64.2335C136.643 61.9482 136.697 59.7111 137.456 57.4298C137.925 56.0873 138.246 54.6457 138.565 53.2148C138.677 52.7075 138.79 52.2 138.909 51.7003C139.313 50.185 139.912 48.6697 140.506 47.17C140.981 45.9694 141.452 44.7788 141.815 43.6063C142.087 42.6978 142.337 41.8121 142.586 40.9264L142.587 40.9245C142.837 40.0377 143.087 39.1501 143.359 38.2405C143.739 37.0049 144.242 35.7444 144.74 34.4981C145.195 33.3597 145.646 32.232 145.993 31.1469C146.22 30.4648 146.628 29.419 147.037 28.3731C147.446 27.3272 147.854 26.2814 148.081 25.5993C149.693 26.4413 151.25 26.9585 153.087 27.5685C153.631 27.7491 154.2 27.9379 154.802 28.1457C157.254 28.9642 162.157 30.5103 164.609 30.965C165.377 31.0987 166.206 31.4535 167.024 31.8037C168.432 32.4064 169.808 32.9953 170.785 32.4201C171.008 32.2924 171.175 32.2208 171.322 32.1579C171.593 32.0418 171.793 31.9558 172.147 31.6016C172.51 31.2379 172.601 30.0556 171.784 29.6918C171.479 29.5175 171.195 29.4267 170.922 29.3394C170.626 29.2445 170.342 29.1537 170.058 28.9642C169.495 28.5694 168.547 28.3495 167.606 28.1309C167.029 27.997 166.454 27.8637 165.972 27.691C165.521 27.5331 164.83 27.2968 164.028 27.0224C161.596 26.1908 158.141 25.0092 157.254 24.5989C156.918 24.4699 156.51 24.2968 156.062 24.1069C154.931 23.6276 153.546 23.0406 152.44 22.78C151.541 22.5398 150.681 21.9427 150.174 21.5909C149.914 21.41 149.747 21.294 149.716 21.3249C149.928 20.9013 150.356 19.767 150.799 18.5934L150.8 18.591C151.308 17.2464 151.835 15.8504 152.077 15.4136C152.35 14.8679 152.531 14.3222 151.986 13.9585C151.078 13.4128 150.624 13.14 149.716 12.7762C149.171 12.5943 148.535 12.6852 148.263 13.3219C147.9 14.4132 147.536 15.5045 147.173 16.6868C146.992 17.1415 145.902 20.1427 145.902 20.1427C145.014 19.8094 144.518 19.5968 144.089 19.4127C143.464 19.1446 142.98 18.937 141.634 18.5057C141.488 18.4692 141.254 18.3156 141.004 18.1507C140.629 17.9044 140.216 17.6327 139.999 17.6872C139.501 17.8407 139.196 17.8808 138.923 17.917C138.548 17.9665 138.229 18.0084 137.547 18.3238C137.093 18.5057 136.548 19.2332 136.639 19.597C136.659 19.7349 136.665 19.8899 136.672 20.0481C136.698 20.6201 136.725 21.234 137.365 21.234C137.819 21.234 138.637 21.5978 139.091 21.8706C139.681 22.1889 140.135 22.3253 140.589 22.4617C141.043 22.5982 141.497 22.7346 142.088 23.0529C143.009 23.5911 143.995 24.0643 144.388 24.2527C144.46 24.2871 144.512 24.312 144.54 24.3261C143.677 26.4179 142.655 29.01 141.633 31.602C140.612 34.1935 139.59 36.7858 138.728 38.8772C138.078 40.5686 137.521 42.2136 136.958 43.8785C136.734 44.5411 136.508 45.2068 136.276 45.8799C135.731 47.4259 134.732 49.0629 133.279 50.1542C132.28 50.8818 131.281 51.6093 130.191 52.2459C128.829 52.9735 127.648 52.2459 127.648 50.6999C127.648 50.1022 127.627 49.5588 127.606 49.036C127.566 48.0475 127.53 47.1325 127.648 46.0617C127.83 44.6984 128.261 41.7681 128.692 38.8369L128.692 38.834L128.693 38.8309C129.124 35.8982 129.555 32.9657 129.737 31.6016L129.744 31.5449C129.832 30.8458 129.897 30.326 129.101 30.2375H128.829C129.101 29.9646 129.283 29.6009 129.374 29.328C129.425 28.9712 129.304 28.4429 129.189 27.9354C129.098 27.5375 129.011 27.1523 129.011 26.8725C128.829 25.5993 128.284 24.6899 127.376 23.7804C124.651 21.0521 121.019 21.9615 118.022 22.871C117.744 22.9407 117.465 23.0637 117.182 23.1891C116.726 23.3909 116.256 23.5985 115.752 23.5985C114.421 23.6726 113.512 24.4093 112.632 25.1223C112.431 25.2852 112.231 25.4471 112.028 25.5993C111.029 26.3269 110.303 27.691 109.849 28.6005C109.395 29.419 108.941 30.3284 108.577 31.2379C107.669 33.2386 106.761 35.3303 106.035 37.4221C105.599 38.5552 105.415 39.8555 105.24 41.0827L105.217 41.2417C105.144 41.6095 105.1 41.9921 105.056 42.3776C104.991 42.9454 104.926 43.5193 104.763 44.061C103.946 45.9708 103.038 47.7897 102.039 49.6086C101.494 50.609 100.768 51.5184 99.8594 52.3369C98.3155 53.6101 97.589 53.4282 96.3177 51.9731C94.4106 49.6086 92.1402 42.6968 92.1402 42.6968C92.1402 42.6968 92.3218 42.2421 93.4116 41.3327C95.9544 39.15 98.8604 35.876 99.5869 32.5111C99.6777 32.0109 99.814 31.5107 99.9502 31.0105C100.086 30.5103 100.223 30.0101 100.313 29.5099L100.325 29.445C100.775 26.9217 101.209 24.4879 99.7686 22.1434C99.6302 21.901 99.4787 21.6586 99.3241 21.4111C99.0726 21.0088 98.8129 20.5932 98.588 20.1427C98.2247 19.2332 97.6799 19.1423 96.7717 19.597C95.864 19.9606 94.6842 20.4378 93.5042 20.915L93.5007 20.9164C92.3207 21.3936 91.1408 21.8708 90.2331 22.2344C89.4187 22.5742 88.6551 22.9648 87.8663 23.3683C87.5996 23.5047 87.33 23.6426 87.0547 23.7804C87.0093 23.8259 86.9639 23.9168 86.9185 24.0077C86.8731 24.0987 86.8276 24.1897 86.7822 24.2351C86.646 25.9176 86.5325 27.6001 86.419 29.2826C86.3055 30.965 86.1919 32.6475 86.0557 34.33C85.8741 37.7858 86.6914 41.0598 87.7812 44.2429C87.8902 44.5976 88.0237 44.9522 88.1572 45.3069C88.4686 46.1345 88.7801 46.9621 88.7801 47.7897C88.7801 49.8267 88.5477 51.8638 88.3152 53.9009C88.2571 54.4102 88.1989 54.9197 88.1444 55.429C88.0879 55.9385 87.9258 56.4128 87.7458 56.9395C87.6366 57.259 87.5208 57.5978 87.4179 57.9754C85.9649 56.4294 84.8751 55.2471 84.2395 53.6101C84.0077 52.9719 83.7852 52.38 83.569 51.8048C83.1075 50.5771 82.6744 49.4248 82.2415 48.0625C81.9564 47.2343 81.6533 46.4061 81.3492 45.5751C80.6849 43.7601 80.0154 41.9307 79.5171 40.0594C78.8814 37.7858 77.4284 34.9666 75.0673 34.6937C74.8856 34.6937 74.5224 34.6937 74.25 34.7847C71.6164 35.6032 68.0746 37.9677 67.6206 40.9689C67.4572 42.0731 67.2388 42.8095 67.0313 43.5089C66.7774 44.3647 66.5399 45.1652 66.44 46.5165C66.3387 48.0373 66.25 49.0181 66.1739 49.8602C66.0451 51.2842 65.9522 52.3117 65.8951 54.8833C65.8951 55.2016 65.827 55.9519 65.7589 56.7022C65.6908 57.4525 65.6227 58.2028 65.6227 58.5211C65.4438 58.4017 64.7955 56.7541 64.3454 55.6103C64.1098 55.0116 63.9284 54.5508 63.8972 54.5196C62.1718 49.6086 61.082 46.4255 61.082 46.4255C61.082 46.4255 62.7166 41.6055 62.8074 39.6047C62.9147 37.9392 63.1171 36.3372 63.321 34.7237C63.4621 33.6063 63.6041 32.4822 63.7156 31.3288C63.8972 29.51 63.988 28.6004 63.8972 26.6906C63.8665 26.1988 63.8462 25.707 63.8257 25.2117C63.7856 24.2416 63.745 23.2579 63.6248 22.2344C63.534 21.234 63.4431 20.3245 63.2615 19.3242C63.2291 19.1296 62.9774 18.6228 62.6627 17.9894C62.0949 16.8464 61.3221 15.2908 61.2636 14.4132C61.1728 13.6856 58.7208 11.2301 57.9943 11.2301C57.6311 11.2301 57.2678 11.2301 56.9046 11.3211C55.9534 11.611 55.3036 11.7311 54.6892 11.8448C53.9544 11.9806 53.2704 12.1071 52.1823 12.5034C51.1833 12.8671 49.8211 14.4132 49.7303 15.5045C49.5487 18.1419 49.4579 19.7789 49.4579 22.4163C49.4579 25.5084 50.1844 28.5095 50.9109 31.4197C51.801 35.1913 53.001 38.6009 54.2382 42.1164L54.239 42.1186C54.6424 43.2648 55.0497 44.4221 55.4515 45.607C55.5424 45.9708 55.8148 47.1531 55.8148 47.1531C55.5662 48.131 55.3732 48.9247 55.2106 49.5933C54.5416 52.344 54.3876 52.9771 52.9996 55.6109C52.8592 55.8765 52.7322 56.134 52.6098 56.3821C52.0199 57.5783 51.5382 58.5551 50.1844 59.1577C48.6405 59.7943 49.8211 61.0675 50.9109 60.6128C51.0481 60.5613 51.1918 60.5097 51.339 60.457C51.9707 60.2304 52.6657 59.9812 53.1812 59.6124C53.7989 59.1344 54.191 58.8824 54.478 58.6979C55.1194 58.2856 55.237 58.21 56.1781 56.7022C56.6428 55.9829 56.852 55.6967 57.0526 55.4223C57.2832 55.1068 57.5024 54.807 58.0851 53.8829C58.3576 54.4286 59.2657 56.4294 59.4473 56.8841C59.9561 58.2994 60.4297 59.1509 60.9557 60.0966C61.2747 60.6701 61.613 61.2783 61.9901 62.0679C63.0614 64.4002 64.2522 66.3736 65.2561 68.0373L65.2571 68.0389C66.21 69.6181 66.9944 70.918 67.3481 71.9808C67.3833 72.0916 67.4177 72.201 67.4516 72.3088C68.0293 74.1481 68.4627 75.5276 70.4358 75.5276C71.7072 75.5276 71.9796 75.5276 72.6153 74.7091C73.0694 74.1635 73.5235 73.4359 73.5235 72.7084C73.5235 71.5794 72.6518 69.8684 71.8986 68.3901C71.6204 67.844 71.3582 67.3295 71.1623 66.888C70.6174 65.6147 70.345 62.3407 70.1634 59.8853C70.1179 59.1577 70.1406 58.1118 70.1634 57.0659C70.1861 56.0201 70.2088 54.9743 70.1634 54.2467L70.1531 53.9087C70.0664 51.0724 69.9989 48.8617 70.4358 46.0617C70.6772 44.5506 71.2396 43.3608 71.7763 42.2254C72.0471 41.6526 72.3113 41.0936 72.5245 40.5142C72.6153 40.2413 73.0694 39.8775 73.251 39.8775C73.5234 39.9685 73.8867 40.2413 74.0683 40.6051C74.4316 41.5145 74.7948 42.4467 75.1581 43.3789C75.5213 44.3111 75.8846 45.2433 76.2479 46.1527C76.7928 47.5624 77.3603 48.9493 77.9279 50.3362C78.4955 51.7231 79.0631 53.1099 79.608 54.5196C80.6977 57.3388 82.1507 59.8853 84.5119 61.7951C85.5108 62.6136 86.9639 62.8864 88.2352 62.4317C90.1423 61.7041 91.2321 60.1581 91.777 58.2483C92.0054 57.4476 92.1261 56.6109 92.252 55.7383C92.3263 55.2233 92.4024 54.6958 92.5035 54.1558C92.7759 54.4286 93.0257 54.7242 93.2754 55.0197C93.5251 55.3153 93.7749 55.6109 94.0473 55.8837C95.2279 57.1569 96.5901 57.9754 98.3156 57.5207C101.403 56.7022 103.583 53.7011 104.491 50.8818C104.597 50.5627 104.745 50.2851 104.896 50.0005C105.133 49.555 105.379 49.0921 105.49 48.4263C106.06 49.6942 106.409 50.2108 106.937 50.9927C107.167 51.3325 107.43 51.7225 107.76 52.2459C110.303 56.4294 113.935 57.7935 118.113 55.1562C120.02 53.9739 121.291 52.2459 122.472 50.4271C122.744 50.0633 123.017 49.6995 123.471 49.1538C123.562 49.6086 123.562 49.7905 123.562 49.9723C123.73 50.5131 123.862 51.0663 123.992 51.6182C124.213 52.5514 124.434 53.4804 124.833 54.3377C125.923 56.5203 129.101 57.3388 131.099 55.5199C131.42 55.1983 131.95 54.8999 132.501 54.5895C133.041 54.2856 133.601 53.9701 134.005 53.6101C133.935 53.8897 133.852 54.1826 133.771 54.4684C133.641 54.9264 133.516 55.3658 133.46 55.7018C133.188 57.6117 132.825 59.5215 132.371 61.3404C131.462 65.0691 130.918 68.3431 132.552 71.7989C133.279 73.254 134.459 74.1635 136.003 74.4363C138.546 74.8001 140.816 74.1635 142.542 72.0718C142.953 71.5831 143.371 71.1016 143.788 70.6212C144.846 69.4034 145.898 68.1922 146.81 66.888C148.081 65.0691 149.262 63.0683 150.261 61.0675C150.862 59.8643 151.324 58.6335 151.786 57.4054C152.162 56.4058 152.537 55.4081 152.985 54.4286C154.075 52.0641 156.618 46.2436 156.618 46.2436C156.618 46.2436 161.613 47.9716 163.792 48.3353C165.336 48.6082 165.336 48.6082 164.882 50.1542C164.194 52.6483 163.541 54.6569 162.928 56.5432C161.842 59.8842 160.881 62.8416 160.069 67.4336C159.342 71.3442 158.888 74.2544 159.796 78.165C160.25 80.2567 161.794 81.7119 164.155 82.1666C166.335 82.5303 168.242 81.439 169.786 80.1658C171.602 78.6197 173.6 76.8918 174.326 75.8914C174.365 75.8914 174.387 75.8914 174.407 75.8984C174.434 75.9078 174.456 75.9301 174.508 75.9824C174.508 76.1307 174.498 76.2887 174.489 76.4501C174.468 76.7834 174.447 77.1311 174.508 77.4375C174.726 79.0392 174.886 79.3004 175.454 80.2274C175.595 80.4584 175.762 80.7306 175.961 81.0752C176.96 82.8941 178.776 83.9854 180.774 84.2583C182.772 84.5311 185.042 84.5311 186.677 83.4398C188.765 82.068 189.165 81.4 189.932 80.1214C190.233 79.6199 190.59 79.0246 191.127 78.256C191.853 77.1646 193.125 74.3454 193.306 73.345C193.125 70.4348 192.852 68.8887 192.58 68.5249ZM181.047 57.8845C181.501 57.2479 184.498 55.2471 185.678 56.975C186.642 58.3422 184.197 60.9895 183.241 62.024C183.116 62.1593 183.017 62.2671 182.954 62.3407C181.864 63.7049 179.23 66.1604 179.049 66.1604C179.14 64.1596 179.957 59.4305 181.047 57.8845ZM57.4495 39.3319L57.2862 38.7338C55.5267 32.2922 51.2383 16.593 55.724 16.5049C55.8167 16.5358 55.9129 16.5668 56.0107 16.5982C56.7756 16.8443 57.6414 17.1228 57.7219 17.6872C57.8127 17.9903 57.9136 18.2935 58.0145 18.5966C58.2163 19.2029 58.4181 19.8092 58.5392 20.4155C58.7208 21.143 58.9933 22.9619 58.9933 23.6895C59.0841 27.0542 59.0841 29.1458 59.0841 32.5103C59.1749 32.6012 57.5403 39.059 57.4495 39.3319ZM91.6862 38.0587C91.5953 38.1496 91.5045 38.2406 91.1413 38.4224C91.0947 38.0024 91.0481 37.6004 91.003 37.2117L91.0022 37.2047C90.872 36.0816 90.7546 35.0689 90.6872 34.0571C90.5056 31.9654 90.9597 29.9646 91.6862 27.9639C92.1402 26.7816 93.9565 25.1446 95.4095 24.8718C96.5901 24.6899 97.589 25.5084 97.4074 26.6906C96.8625 30.6922 94.8646 35.1485 91.6862 38.0587ZM125.287 31.6016C125.196 32.4201 123.925 39.5138 123.653 40.1504C121.655 44.1519 119.112 47.6987 115.752 50.6999C115.116 51.2456 114.299 51.5184 113.481 51.7912C113.3 51.8822 112.937 51.7003 112.755 51.5184C110.394 48.0625 109.486 44.6976 110.485 40.8779C110.598 40.4597 110.681 39.9462 110.764 39.4236C110.881 38.6962 111 37.9512 111.211 37.4221C111.5 36.7558 111.762 36.0527 112.025 35.345C112.589 33.8308 113.16 32.2955 114.026 31.056C114.806 29.8587 116.091 28.87 117.372 27.8853C118.328 27.1496 119.282 26.416 120.02 25.5993C120.202 25.4174 120.474 25.2355 120.746 25.2355C121.927 25.0536 124.651 25.7812 125.015 26.8725C125.388 27.9321 125.42 28.5645 125.462 29.3845C125.481 29.761 125.502 30.1772 125.56 30.6922C125.469 30.7831 125.287 31.1469 125.287 31.6016Z" fill="currentColor"/>
<path fill-rule="evenodd" clip-rule="evenodd" d="M41.5567 118.09C43.6455 116.816 44.826 114.725 45.7342 112.633C46.0293 111.993 46.2711 111.326 46.5174 110.646C46.7258 110.071 46.9374 109.488 47.1872 108.904C47.3372 109.054 47.4596 109.205 47.5697 109.34C47.6596 109.45 47.7412 109.55 47.8229 109.632C50.6381 112.542 52.0003 113.179 55.6328 111.723L55.6884 111.701L55.7852 111.663C56.2033 111.499 56.6617 111.32 56.9042 110.996C57.7215 109.632 58.5389 108.268 59.0838 106.722C59.41 105.872 59.5018 104.976 59.595 104.066C59.6316 103.71 59.6683 103.351 59.7195 102.993C59.7195 102.811 59.3562 102.356 59.0838 103.084C58.1756 105.175 56.8134 106.722 55.088 108.086C54.5431 108.54 52.636 108.904 52.0003 107.995C51.1945 106.894 50.9205 105.498 50.654 104.14C50.5902 103.815 50.5267 103.491 50.4565 103.175C50.0301 101.406 49.8489 99.6781 49.6662 97.9363C49.5764 97.0809 49.4863 96.2221 49.3667 95.3535C49.2759 94.3531 49.1851 93.5346 48.3678 93.6256C47.3688 93.7165 47.0964 93.8075 46.1882 94.2622C45.2801 94.7169 44.2811 95.3535 44.0995 96.5358L44.0767 96.7628C43.9941 97.5831 43.9179 98.34 43.9179 99.1732C43.9179 99.543 43.9479 99.9128 43.9775 100.276C44.0206 100.807 44.0626 101.325 44.0087 101.811C43.8809 102.643 43.783 103.455 43.687 104.252C43.3738 106.851 43.0803 109.287 41.8292 111.723C41.4659 112.36 40.1945 113.997 39.1956 113.633C38.1966 113.27 37.4701 108.813 37.1069 106.358C36.748 103.932 36.655 101.417 36.5653 98.9891L36.562 98.9003C36.4703 97.7981 36.4249 96.6727 36.379 95.5358C36.334 94.4214 36.2886 93.2959 36.1987 92.1705C36.1987 91.8976 35.7447 91.5339 35.563 91.5339C34.4733 91.5339 33.9284 91.6248 32.8388 91.8067C31.9306 91.9886 30.7499 92.3524 30.7499 93.3527C30.7499 93.8529 30.6137 94.2849 30.4775 94.7169C30.3413 95.1489 30.2051 95.5809 30.2051 96.0811C30.2051 96.172 30.205 96.4448 30.2959 96.5358C30.5742 97.4277 30.4431 99.7544 30.3208 101.925C30.2436 103.295 30.1699 104.603 30.2051 105.448C30.0815 106.304 29.9719 107.082 29.8716 107.794C29.0873 113.36 28.8681 114.916 26.9358 118.544C24.7562 122.728 22.1226 121 22.0318 120.909C21.7594 120.636 21.3961 119.09 21.3053 117.999C21.2811 117.659 21.2827 117.313 21.2843 116.966C21.2888 116.011 21.2933 115.046 20.7604 114.179C20.6696 113.997 20.5788 113.633 20.6696 113.451C21.2151 112.291 21.1462 111.027 21.0781 109.777C21.0554 109.362 21.0329 108.948 21.0329 108.54C21.0329 107.279 21.132 105.984 21.2306 104.696C21.2954 103.849 21.3601 103.004 21.3961 102.174C21.6231 99.4468 21.8501 96.6966 22.077 93.9464L22.0774 93.9414C22.3044 91.1911 22.5314 88.4409 22.7583 85.7134C22.7838 85.458 22.8147 85.1255 22.8507 84.7378L22.851 84.7351C23.0714 82.361 23.4835 77.9218 24.0297 76.4371C24.2114 75.8915 24.2114 75.4367 23.7573 75.1639C23.2124 74.8001 22.6675 74.5273 22.1226 74.4364C21.1361 74.3266 20.5796 74.6806 19.954 75.0785C19.543 75.3399 19.1022 75.6202 18.4901 75.8005C18.2625 75.8765 18.0982 76.397 17.9444 76.8844C17.9141 76.9803 17.8843 77.075 17.8544 77.1647C17.7939 77.3466 17.814 77.5285 17.8342 77.7104C17.8443 77.8013 17.8544 77.8922 17.8544 77.9832C17.7664 79.1 17.5645 80.6157 17.3439 82.2725C16.8817 85.7424 16.3372 89.8315 16.583 92.1705C16.6738 92.898 16.2198 95.4445 16.2198 95.4445C16.2198 95.4445 13.2229 94.4441 12.7688 94.4441L12.7031 94.4485C11.3599 94.538 9.93173 94.6333 8.59143 95.0807C7.95573 95.2626 7.36544 95.5581 6.77515 95.8537C6.18487 96.1493 5.59458 96.4448 4.95888 96.6267C2.23448 97.5362 0.509021 99.0822 0.327394 102.083C0.297123 102.659 0.276942 103.235 0.256761 103.811C0.216399 104.963 0.176036 106.115 0.0549508 107.267C-0.308303 111.269 1.14472 114.634 3.95994 117.453C7.13841 120.727 12.9505 120.181 15.2208 116.816C15.4024 116.544 15.6749 116.271 16.0381 115.907C16.1289 117.726 16.2198 119.363 16.3106 121C16.4922 123.091 16.6738 123.364 18.1268 125.092C18.7625 125.82 20.2156 126.184 21.2145 126.093C23.4848 125.82 25.4827 125.547 26.9358 123.455C27.546 122.658 28.0788 122.094 28.5544 121.59C29.7066 120.37 30.5234 119.505 31.2948 116.544C31.5672 115.361 32.9295 112.36 32.9295 112.36C32.9295 112.36 33.5651 114.179 34.2008 116.18C34.6549 117.726 36.2896 118.817 37.9242 119.09C39.1956 119.181 40.467 118.817 41.5567 118.09ZM14.6759 104.812C13.7678 107.722 12.7688 110.632 11.7699 113.542C11.5883 113.906 11.4066 114.27 11.1342 114.634C10.1353 116.18 8.95468 116.362 7.68329 114.997C5.77621 113.088 5.0497 110.905 5.14051 108.177C5.23132 105.266 5.77621 102.538 6.95678 99.9007C7.7741 98.1728 9.86282 97.7181 11.3158 99.1732C11.7179 99.5759 12.3337 99.8359 12.9108 100.08C12.9854 100.111 13.0594 100.142 13.1321 100.174C13.5947 100.347 14.0942 100.484 14.6305 100.631C14.9364 100.715 15.2542 100.802 15.5841 100.901C15.4125 101.545 15.2815 102.169 15.1527 102.783C15.0088 103.468 14.8676 104.14 14.6759 104.812Z" fill="currentColor"/>
<path fill-rule="evenodd" clip-rule="evenodd" d="M72.7959 140.553C72.0694 142.463 70.9796 144.281 69.5266 145.737C68.9645 146.299 68.4113 146.889 67.8552 147.482C65.8955 149.57 63.9 151.697 61.3534 152.83C60.1338 153.39 58.8574 153.836 57.5877 154.279C56.5887 154.628 55.5929 154.976 54.6332 155.377C52.7228 156.156 51.4739 156.549 49.8128 157.072C49.342 157.22 48.8377 157.379 48.2762 157.559C47.5497 157.832 44.7345 158.378 44.7345 158.378C44.7345 158.378 42.3734 169.291 41.2836 174.293C40.9203 175.748 40.6479 177.203 40.4663 178.658C40.3755 179.477 39.9214 179.75 39.2857 179.75C38.6718 179.75 38.3665 179.612 37.9906 179.443C37.7548 179.337 37.4912 179.218 37.1062 179.113C36.198 178.84 35.744 178.295 35.5623 177.203C35.2909 175.029 35.78 172.956 36.2719 170.871C36.4383 170.165 36.6051 169.458 36.7429 168.745C37.4694 165.29 38.1959 161.379 38.8316 157.923C38.8316 157.923 37.0154 157.286 36.5613 156.741C36.0164 156.195 35.8348 154.649 36.1072 154.103C36.4967 153.453 37.5359 153.314 38.7272 153.155C39.2024 153.092 39.7018 153.025 40.1938 152.921C40.1938 152.921 41.556 147.01 42.2825 144.372C42.7464 142.572 43.2843 140.809 43.8253 139.036C44.1317 138.032 44.439 137.025 44.7345 136.005C45.0874 134.743 45.4683 133.229 45.8461 131.727C46.1488 130.523 46.4496 129.327 46.7324 128.275C46.7324 128.275 46.46 128.184 46.0967 128.093C45.8795 128.05 45.4338 128.006 44.9881 127.963C44.502 127.915 44.0159 127.868 43.8264 127.821C42.1917 127.366 41.8285 126.729 41.556 126.002C41.2836 125.183 41.6469 124.274 42.1009 124.183C42.2874 124.183 42.5166 124.14 42.7591 124.095C43.225 124.008 43.7405 123.912 44.0988 124.092C45.4398 124.689 47.6363 124.551 48.7332 124.482C48.9735 124.467 49.161 124.456 49.2752 124.456C49.5443 124.468 49.7904 124.478 50.0193 124.488L50.0487 124.49C51.5005 124.552 52.2675 124.585 53.9067 124.819C56.3256 125.13 58.5751 125.695 60.7998 126.254C61.8324 126.513 62.8597 126.771 63.8962 127.002C68.1644 128.002 72.5235 129.821 73.3408 134.096C73.704 136.096 73.5224 138.643 72.7959 140.553ZM50.3893 151.578C51.5776 151.209 52.6967 150.861 53.8159 150.466C54.2881 150.271 54.8538 150.068 55.4505 149.853L55.4527 149.853L55.4544 149.852C56.8077 149.366 58.3201 148.823 59.2647 148.192C60.3362 147.477 61.3687 146.644 62.3877 145.822C62.9233 145.39 63.4551 144.962 63.987 144.554C65.5308 143.372 68.1644 140.007 68.4368 138.006C68.8001 135.278 68.4368 134.187 66.4389 132.186C65.6216 131.367 62.7156 130.276 62.1707 130.185C61.6258 130.049 61.1264 129.912 60.6269 129.776C60.1274 129.639 59.6279 129.503 59.0831 129.367C57.6619 128.971 56.7212 128.851 55.1272 128.647C54.8878 128.616 54.6335 128.584 54.3607 128.548C53.9975 128.457 52.5445 128.366 52.5445 128.366C52.2721 129.185 51.9996 130.185 51.7272 131.185C51.5002 132.004 51.3185 132.845 51.1369 133.686C50.9552 134.528 50.7736 135.369 50.5466 136.187C50.2069 137.661 49.7614 139.1 49.32 140.525C49.0533 141.386 48.7881 142.243 48.5487 143.099C48.2762 144.145 48.0038 145.168 47.7313 146.191C47.459 147.214 47.1863 148.238 46.914 149.283C46.8232 149.829 46.0059 152.739 46.0059 152.739C46.0059 152.739 48.5487 152.194 49.0027 152.012C49.4774 151.862 49.9383 151.718 50.3893 151.578Z" fill="currentColor"/>
<path d="M31.2946 140.553C31.2492 140.598 31.181 140.621 31.1129 140.644C31.0448 140.666 30.9767 140.689 30.9313 140.735C29.5691 141.462 28.1161 141.553 26.6631 141.462C25.5732 141.417 24.5061 141.394 23.4389 141.371L23.4369 141.371C22.3706 141.348 21.3043 141.326 20.2153 141.28C19.8054 141.245 19.3955 141.212 18.9863 141.18L18.9818 141.18C17.3073 141.048 15.6444 140.918 14.04 140.553C12.2622 140.108 9.8753 139.227 8.15686 138.593L8.04629 138.552H7.95547C7.41059 138.461 7.04734 139.098 7.22897 139.643C7.22897 139.734 7.31978 139.825 7.41059 139.916C7.77241 140.227 8.16365 140.478 8.56755 140.738C8.87318 140.935 9.18643 141.136 9.49931 141.371C9.72208 141.52 10.0663 141.699 10.4451 141.896C10.9926 142.181 11.6127 142.504 12.0421 142.826C12.0875 142.872 12.1329 142.894 12.1783 142.917C12.2237 142.94 12.2691 142.963 12.3145 143.008C12.7104 143.08 13.149 143.181 13.6135 143.287C14.3211 143.45 15.0887 143.626 15.8563 143.736C17.5817 144.009 19.2164 144.19 20.9418 144.281C21.798 144.32 22.6542 144.309 23.5104 144.298C24.6521 144.283 25.7938 144.268 26.9355 144.372C28.7518 144.554 30.568 144.463 32.2027 143.645C32.9292 143.281 33.6557 141.735 33.3833 141.098C33.2016 140.371 32.2027 140.189 31.2946 140.553Z" fill="currentColor"/>
<path d="M95.1749 138.797C95.8587 138.83 96.5425 138.862 97.2263 138.734C97.7712 138.552 98.5885 138.552 98.4068 140.007C98.4976 141.098 98.0436 142.372 96.863 143.372L96.809 143.409C96.7788 143.43 96.747 143.452 96.714 143.475L96.7094 143.478C96.4431 143.665 96.1054 143.902 95.9549 143.827C94.411 143.372 93.0488 142.826 91.5958 142.19C91.3234 142.099 91.0509 141.462 91.1418 141.189C91.1592 141.12 91.1766 141.033 91.196 140.937L91.1963 140.935C91.2778 140.53 91.3935 139.954 91.6866 139.734C91.7752 139.675 91.9022 139.578 92.0427 139.47C92.3341 139.246 92.6834 138.977 92.8672 138.916C93.6365 138.723 94.4057 138.76 95.1749 138.797Z" fill="currentColor"/>
<path fill-rule="evenodd" clip-rule="evenodd" d="M197.393 125.456C196.797 125.695 196.288 126.056 195.789 126.409C195.149 126.862 194.527 127.303 193.761 127.457C193.397 127.548 190.673 127.912 190.491 127.639L190.38 127.5C189.341 126.204 188.509 125.166 188.947 122.091C189.053 121.291 189.148 120.534 189.241 119.801L189.241 119.799C189.547 117.368 189.821 115.197 190.31 112.542C190.759 110.091 191.511 107.64 192.263 105.189C192.878 103.184 193.493 101.178 193.942 99.1732L194.024 98.8049C194.516 96.5842 194.797 95.3187 195.486 92.989C195.759 92.0795 195.895 91.352 196.031 90.6244C196.167 89.8969 196.303 89.1693 196.576 88.2599C196.667 87.8961 196.485 87.1686 196.303 87.0776C195.948 86.9114 195.716 86.7762 195.54 86.6736C195.042 86.3832 194.992 86.3541 193.851 86.6229C193.488 86.7138 193.125 86.9867 192.943 87.2595C192.58 87.7142 192.398 88.2599 192.217 88.8056C191.944 89.3512 191.672 89.8969 191.49 90.5335C191.24 91.7575 191.054 92.7108 190.884 93.5801L190.884 93.583L190.883 93.5848C190.562 95.2323 190.3 96.5799 189.765 98.9004C189.658 99.4895 189.425 100.079 189.177 100.705C189.004 101.142 188.824 101.598 188.675 102.083C188.615 102.004 188.56 101.933 188.51 101.868C188.332 101.64 188.221 101.498 188.221 101.356C187.585 99.6279 186.223 99.2641 184.588 99.3551C183.319 99.4081 182.419 99.5228 181.458 99.6453C180.769 99.733 180.049 99.8248 179.14 99.9007C178.595 99.9007 178.05 100.174 177.596 100.446C175.235 101.992 173.055 104.175 172.329 106.994C171.909 108.842 170.483 112.164 169.623 114.166L169.423 114.634C168.63 116.458 168.598 116.484 167.096 117.668C166.876 117.841 166.625 118.039 166.335 118.271C165.79 118.635 163.429 119.545 163.338 118.817C163.213 118.188 163.261 117.342 163.302 116.61C163.321 116.282 163.338 115.978 163.338 115.725C163.544 111.662 164.636 104.991 165.469 99.899L165.47 99.8967L165.47 99.8947L165.47 99.8919C165.737 98.2624 165.977 96.7947 166.153 95.6264C166.426 94.0803 166.607 92.8071 166.062 91.4429C165.79 90.7154 164.882 90.0788 164.155 89.9878C162.702 89.8059 161.34 89.8059 160.069 90.7154C157.653 92.638 155.618 96.041 153.733 99.1937C152.853 100.664 152.007 102.08 151.169 103.266C151.078 103.357 150.488 104.607 149.898 105.858C149.307 107.108 148.717 108.359 148.626 108.449C148.445 107.722 148.808 103.902 148.899 103.266C148.983 102.162 149.207 101.059 149.43 99.9553C149.685 98.6942 149.94 97.4331 149.988 96.172C150.016 95.6434 150.07 95.0551 150.125 94.4438C150.251 93.0569 150.387 91.5508 150.261 90.3516C150.17 88.9874 149.898 88.2599 148.535 88.2599C147.809 88.2599 145.993 88.4418 145.448 88.8965C145.08 89.2649 144.968 89.75 144.865 90.1981C144.764 90.6349 144.672 91.0366 144.358 91.261C144.058 91.4798 143.618 91.8628 143.083 92.3288C141.838 93.4128 140.079 94.9451 138.364 95.8992C138.248 95.4045 138.141 94.826 138.029 94.2174C137.79 92.9238 137.525 91.4939 137.093 90.4425C136.911 89.8969 136.003 88.3508 135.731 87.9871C134.732 87.0776 131.19 85.1678 129.919 84.804L129.702 84.7467C125.031 83.51 122.611 82.8691 119.838 87.1686C116.842 91.8067 119.475 96.172 119.475 96.172C119.475 96.172 117.931 101.083 117.023 105.357C116.569 107.358 116.932 115.179 118.022 117.271C118.203 117.61 118.38 117.951 118.555 118.292C119.701 120.514 120.824 122.691 123.108 123.637C126.014 124.728 128.556 124.547 130.827 122.091C131.054 121.818 131.281 121.568 131.508 121.318C131.735 121.068 131.962 120.818 132.189 120.545C132.646 119.876 133.158 119.343 133.65 118.83C134.429 118.019 135.16 117.259 135.549 116.089L135.642 115.817C136.67 112.815 137.202 111.263 137.819 107.995C138.364 105.266 138.546 100.901 138.546 100.901C138.546 100.901 142.179 98.9913 144.176 97.2634C144.139 97.9713 144.132 98.6487 144.125 99.4019C144.114 100.487 144.102 101.73 143.995 103.448C143.905 104.879 143.684 106.377 143.45 107.962C143.208 109.599 142.953 111.33 142.814 113.179C142.713 114.559 142.687 115.466 142.667 116.181C142.631 117.396 142.612 118.056 142.269 119.545C142.131 120.146 142.063 120.794 141.993 121.453C141.927 122.09 141.858 122.738 141.724 123.364C143.45 125.274 146.447 123.819 147.173 121.818C147.4 121.203 147.661 120.588 147.923 119.968C148.398 118.848 148.879 117.715 149.171 116.544C150.533 111.996 153.53 104.721 156.255 100.901C156.863 100.016 157.336 99.3995 157.839 98.7454C158.162 98.3249 158.497 97.8879 158.888 97.3543C158.909 97.3751 159.048 97.2106 159.25 96.9727C159.93 96.1696 161.319 94.5298 161.249 96.3539C161.126 97.7573 160.665 100.753 160.182 103.896C159.601 107.677 158.987 111.672 158.888 113.36L158.881 113.489C158.792 114.987 158.709 116.405 158.797 117.908C158.797 118.468 158.882 119.155 158.965 119.825C159.003 120.134 159.041 120.44 159.07 120.727C159.251 122 160.16 122.819 161.249 123.273C162.266 123.71 163.284 123.215 164.301 122.72C164.555 122.597 164.809 122.473 165.064 122.364C166.517 121.727 168.424 120.181 168.424 120.181C168.424 120.181 168.696 122.455 168.878 124.183C169.059 126.729 169.967 128.821 171.693 130.64C171.78 130.748 171.866 130.867 171.954 130.988C172.235 131.373 172.528 131.775 172.873 131.913C174.871 132.641 176.778 132.823 178.776 131.64C180.244 130.772 180.878 129.56 181.579 128.221C181.833 127.737 182.095 127.236 182.409 126.729C182.78 126.079 183.222 125.239 183.675 124.379L183.676 124.377C184.109 123.554 184.552 122.711 184.952 122C185.034 122.745 185.023 123.639 185.012 124.531C184.998 125.6 184.985 126.663 185.133 127.457C185.406 129.094 186.768 130.549 188.493 131.367C190.673 132.368 192.943 132.095 195.032 130.822C195.112 130.769 195.189 130.717 195.266 130.667C195.971 130.201 196.529 129.833 196.939 129.094L196.998 128.904C197.389 127.637 198.169 125.111 197.393 125.456ZM133.37 108.359C132.9 110.192 132.673 110.786 132.426 111.434C132.195 112.04 131.945 112.694 131.463 114.452C130.918 116.362 129.828 117.908 128.012 119.181C127.103 119.818 124.652 119.999 123.925 119.181C123.715 118.929 123.506 118.692 123.296 118.454C122.598 117.663 121.899 116.872 121.201 115.543C120.202 113.542 120.111 108.904 120.747 105.175C121.163 102.743 121.42 101.957 121.842 100.667L121.843 100.664C121.973 100.266 122.12 99.82 122.29 99.2641C124.197 101.265 126.014 102.174 128.92 102.447C129.299 102.469 129.716 102.525 130.158 102.583C131.517 102.763 133.111 102.974 134.55 102.356C134.641 103.902 133.914 106.449 133.37 108.359ZM129.555 97.9C127.467 97.5362 125.923 96.4449 124.652 95.3535C121.927 92.989 123.198 88.9874 125.56 88.1689C126.74 87.7142 130.918 89.0784 132.28 90.7154C133.642 92.3524 134.732 96.263 134.913 97.9909C133.46 98.5366 131.19 98.2637 129.555 97.9ZM187.313 105.812C187.034 106.45 186.843 106.913 186.67 107.332C186.448 107.868 186.257 108.331 185.951 108.995C185.436 110.238 184.942 111.491 184.447 112.744C183.458 115.25 182.469 117.756 181.319 120.181C180.482 121.986 179.372 123.699 178.279 125.386C177.83 126.079 177.383 126.768 176.96 127.457C176.767 127.778 176.439 128.009 176.102 128.245C175.963 128.343 175.822 128.442 175.689 128.548C174.508 126.911 173.691 125.092 173.328 123.364C172.601 119.545 173.6 115.725 175.053 112.36C175.362 111.673 175.632 111.011 175.897 110.361C176.334 109.291 176.759 108.251 177.323 107.176C177.566 106.691 177.888 106.206 178.211 105.721C178.373 105.479 178.534 105.236 178.686 104.994C179.321 104.084 182.591 102.72 183.499 103.357C183.771 103.357 187.494 104.357 187.313 105.812Z" fill="currentColor"/>
<path fill-rule="evenodd" clip-rule="evenodd" d="M172.23 147.799C172.508 148.075 172.773 148.338 172.873 148.738C173.01 149.322 173.134 149.815 173.25 150.277C173.442 151.036 173.611 151.709 173.781 152.557C174.414 154.46 174.288 157.191 174.185 159.427C174.17 159.756 174.156 160.075 174.144 160.379C174.053 163.107 173.781 165.653 172.782 168.2L171.692 170.928C170.965 172.565 169.058 174.839 167.333 175.475C167.099 175.553 166.866 175.681 166.633 175.809C166.321 175.98 166.01 176.151 165.698 176.203C163.882 176.476 162.066 175.93 160.34 175.111C158.252 174.111 156.526 170.473 156.526 170.473C156.526 170.473 154.71 174.02 154.256 175.748C154.023 177.667 153.42 178.88 152.73 180.266C152.341 181.047 151.924 181.884 151.531 182.933C151.236 183.671 150.835 184.303 150.428 184.944C150.083 185.486 149.734 186.036 149.443 186.661C148.262 189.481 145.174 191.39 142.087 191.663C139.726 191.845 137.909 190.663 136.456 188.844C134.489 186.343 133.846 181.317 133.371 177.606L133.37 177.604C133.275 176.862 133.187 176.172 133.096 175.566C132.987 174.639 132.78 173.711 132.573 172.783C132.435 172.165 132.297 171.546 132.188 170.928L132.017 170.144C131.44 167.51 130.876 164.936 130.463 162.288C130.19 161.106 129.555 160.379 128.646 159.742C128.465 159.56 127.92 159.651 127.738 159.833C125.362 162.088 125.009 164.342 124.546 167.31C124.336 168.652 124.104 170.139 123.652 171.837C122.866 174.32 122.603 175.795 122.381 177.04C122.27 177.665 122.169 178.232 122.017 178.84C121.29 181.841 120.836 184.024 120.564 186.389C120.381 188.099 120.198 190.713 120.042 192.934L120.042 192.936C119.966 194.02 119.897 195.011 119.837 195.756C119.747 196.938 118.384 199.848 117.84 200.03C117.589 200.08 117.345 200.138 117.104 200.194C116.473 200.342 115.863 200.485 115.206 200.485C114.661 200.485 114.025 200.121 113.662 199.666C112.663 198.393 112.482 196.938 112.482 195.392C112.482 195.103 112.454 194.428 112.416 193.507C112.336 191.531 112.209 188.423 112.209 185.57C112.107 185.706 112.018 185.804 111.947 185.882C111.826 186.014 111.755 186.093 111.755 186.207C111.029 188.935 109.757 191.481 108.395 193.937C107.85 194.755 107.487 195.665 107.124 196.574C105.035 201.576 97.6789 202.304 94.5913 198.666C93.3199 197.211 92.4118 195.574 92.2301 193.573C92.1095 191.822 92.1491 190.151 92.1893 188.453C92.2097 187.594 92.2301 186.729 92.2301 185.843C92.2523 184.269 92.2474 183.019 92.2432 181.935C92.2302 178.574 92.2234 176.811 93.0475 171.928C93.1982 171.173 93.2099 169.388 93.2211 167.681C93.2301 166.304 93.2388 164.979 93.3199 164.289C91.4128 166.472 89.5057 168.2 86.963 169.382C86.1456 169.746 85.4191 169.928 85.4191 169.928C85.2438 170.893 85.1061 171.972 84.9636 173.088C84.6633 175.44 84.3419 177.958 83.6028 179.932C82.4491 182.936 81.1651 185.483 79.9163 187.96C79.6907 188.408 79.4662 188.853 79.2438 189.299C78.5485 190.614 77.3931 191.666 76.2809 192.679C76.0859 192.856 75.8917 193.033 75.7021 193.209C73.9113 194.917 73.6419 195.021 72.2623 195.555L71.9787 195.665C71.063 196.018 70.202 195.987 69.3108 195.956C69.053 195.947 68.7927 195.938 68.5278 195.938C66.984 195.938 64.4412 194.937 63.3514 193.937C60.627 191.39 59.174 188.753 59.0832 185.024C59.026 182.789 59.2212 181.637 59.4644 180.203C59.6071 179.362 59.7662 178.424 59.9005 177.112C60.1782 174.749 60.8802 173.129 61.6823 171.279C61.9296 170.708 62.1865 170.116 62.4433 169.473C62.8775 168.241 63.1964 167.529 63.8596 166.047C64.0286 165.67 64.2199 165.242 64.4412 164.744C62.1709 161.652 63.8055 157.65 65.3493 155.195C66.8932 152.739 71.7063 150.648 73.0685 151.466C73.8318 151.896 75.2717 152.502 76.6906 153.098C77.9723 153.637 79.2376 154.17 79.9703 154.558C81.4233 155.286 83.4212 158.105 83.6937 159.196C83.7842 159.536 83.9368 159.967 84.1135 160.465C84.6457 161.966 85.3965 164.083 85.3283 166.199C86.5072 165.978 88.2242 164.559 89.5091 163.497C89.8075 163.251 90.0835 163.023 90.3231 162.834C91.2949 161.617 91.6574 160.808 92.0082 160.024C92.1819 159.636 92.3528 159.254 92.5934 158.832C92.8392 158.402 92.8771 157.346 92.904 156.596C92.9169 156.238 92.9273 155.949 92.9566 155.831C93.4107 154.012 95.0454 153.285 96.8616 153.649C97.5582 153.742 97.6374 153.787 97.7184 153.834C97.7959 153.878 97.875 153.924 98.4963 154.012C99.586 154.194 100.403 155.468 100.04 156.65C99.5123 158.236 99.3253 159.859 99.1368 161.496C99.0334 162.394 98.9296 163.296 98.7687 164.198C98.6293 165.21 98.5166 166.183 98.405 167.145C98.2259 168.691 98.0496 170.212 97.7698 171.837C97.5294 173.33 97.5181 174.873 97.5068 176.414C97.4967 177.783 97.4867 179.15 97.3157 180.477C97.1962 181.614 97.3911 184.128 97.5643 186.362C97.6544 187.525 97.7387 188.612 97.7698 189.39C97.7698 191.118 98.0422 192.846 98.4055 194.483C98.5871 195.21 99.2228 196.029 99.7677 196.665C100.131 197.12 100.676 196.938 100.948 196.483C101.766 195.21 102.583 193.937 103.4 192.573C103.654 192.153 103.897 191.754 104.13 191.371L104.132 191.368C106.071 188.186 107.342 186.1 108.395 182.205C108.985 179.977 109.371 178.931 109.757 177.885C110.143 176.839 110.529 175.794 111.119 173.565C111.755 171.019 111.392 161.652 111.119 159.105C110.847 156.923 112.118 155.013 114.298 154.831L114.634 154.808C115.079 154.778 115.301 154.763 115.524 154.763C115.746 154.763 115.969 154.778 116.414 154.808L116.75 154.831C117.749 154.922 118.112 155.831 117.658 156.741C117.385 157.195 117.113 157.65 117.113 158.196C117.113 160.015 117.295 174.93 117.476 176.839C117.976 176.157 119.066 172.156 120.155 168.154C121.245 164.153 122.335 160.151 122.834 159.469C123.188 159.005 123.519 158.524 123.85 158.045C124.882 156.552 125.907 155.067 127.557 154.103C128.919 153.285 130.372 152.921 131.916 153.103C132.37 153.103 132.824 153.467 133.096 153.831C134.095 155.013 134.549 156.923 134.913 158.469C135.157 159.571 135.402 160.326 135.614 160.978C135.873 161.779 136.084 162.428 136.184 163.38C136.32 164.789 136.57 166.426 136.82 168.063C137.069 169.7 137.319 171.337 137.455 172.747C137.728 176.203 139.272 180.75 140.815 183.933C141.061 184.426 141.432 184.877 141.815 185.342C141.998 185.564 142.183 185.79 142.359 186.025C142.466 185.918 143.008 186.03 143.458 186.123C143.776 186.188 144.047 186.244 144.085 186.207C146.559 184.968 147.575 182.445 148.675 179.713C148.948 179.035 149.227 178.345 149.533 177.658C151.077 174.202 151.804 170.837 151.804 170.473C151.895 169.746 153.075 167.199 153.166 167.017C153.257 166.745 153.711 164.744 153.529 164.38C152.236 161.012 150.696 154.527 149.767 150.612L149.624 150.011C149.608 149.947 149.59 149.866 149.569 149.776C149.47 149.35 149.32 148.706 149.17 148.556C148.08 149.283 145.447 150.829 144.266 151.466C143.177 152.103 141.996 152.648 140.815 153.103C140.089 153.285 139.181 153.194 138.363 152.739C137.909 152.466 138 151.83 138.545 151.648C139.544 151.375 140.361 150.738 141.179 150.102C142.813 148.92 144.63 147.828 146.355 146.828C146.9 146.555 148.262 145.282 148.262 145.282C148.262 145.282 147.263 140.916 146.991 138.825C146.809 137.461 146.627 136.46 146.264 135.096C146.204 134.793 145.901 134.49 145.571 134.16C145.407 133.995 145.235 133.823 145.084 133.641C145.084 133.641 145.084 133.368 145.265 133.277C146.446 132.459 148.444 132.277 149.261 132.277C150.26 132.277 150.623 132.731 150.714 133.732C150.853 134.844 151.204 135.903 151.524 136.868C151.622 137.166 151.718 137.455 151.804 137.733C151.999 138.321 152.111 138.976 152.225 139.647C152.376 140.535 152.532 141.452 152.894 142.281C153.062 142.112 153.855 141.596 154.522 141.162C154.934 140.894 155.298 140.657 155.436 140.553C156.426 139.799 157.399 139.046 158.362 138.3C159.607 137.336 160.837 136.383 162.066 135.46C162.883 134.823 164.064 134.55 165.244 134.641C165.698 134.641 165.88 135.187 165.607 135.551C165.501 135.679 165.394 135.813 165.286 135.948C164.935 136.386 164.571 136.84 164.154 137.188C162.066 139.188 159.887 141.098 157.708 143.007L157.707 143.008C157.071 143.554 156.435 144.19 155.8 144.827C155.618 145.1 154.074 146.373 154.074 146.373C154.074 146.373 156.526 156.923 158.252 161.743C158.848 163.336 159.928 165.316 160.892 167.083C161.249 167.737 161.59 168.362 161.884 168.927C162.247 169.564 163.882 170.564 165.153 170.655C167.151 170.837 168.604 167.927 168.877 166.836C169.24 165.38 169.785 161.197 169.967 159.651C170.148 157.878 170.08 156.695 170.012 155.513C169.944 154.331 169.876 153.148 170.057 151.375C170.1 151.035 169.924 150.437 169.743 149.822C169.537 149.121 169.325 148.398 169.422 148.01C169.512 147.374 169.876 146.828 170.33 146.373C170.421 146.282 171.42 146.646 171.601 147.01C171.765 147.337 172.002 147.573 172.23 147.799ZM73.6231 189.329C74.7109 187.972 75.5442 186.932 76.4286 185.024C78.8805 179.932 79.9703 177.294 80.6968 171.292C80.6968 171.159 80.0913 171.242 79.2179 171.362C78.3015 171.489 77.0904 171.656 75.9745 171.656L75.7744 171.656L75.4773 171.657C73.8133 171.664 72.9265 171.668 71.4338 170.837C71.098 170.641 70.6932 170.462 70.2672 170.274C69.3109 169.851 68.2479 169.381 67.6197 168.563C67.1652 169.73 66.7995 170.647 66.4866 171.432C65.7993 173.156 65.3661 174.243 64.8045 175.93C64.1688 177.84 63.8055 180.386 63.8963 182.387C63.8963 183.263 64.0129 184.138 64.1279 185.002C64.2399 185.843 64.3504 186.672 64.3504 187.48C64.3504 189.639 66.8379 190.997 67.8588 191.554L67.8921 191.572C68.8003 192.027 71.7063 191.754 72.4328 190.845C72.8658 190.274 73.2587 189.784 73.6231 189.329ZM69.5268 163.743C70.4349 165.926 73.0685 167.108 75.3388 167.745C77.8816 168.473 80.8784 167.472 80.8784 167.472C80.8784 167.472 80.0611 162.652 79.3346 161.288C78.6081 159.924 75.3388 156.65 72.8869 157.105C70.5257 157.559 68.5278 161.47 69.5268 163.743Z" fill="currentColor"/>
<path fill-rule="evenodd" clip-rule="evenodd" d="M98.9516 99.7188C99.3549 99.5014 99.6787 99.329 99.9492 99.185C101.263 98.4857 101.322 98.4544 103.129 97.1724C104.023 96.5526 104.813 96.0632 105.567 95.5955C106.806 94.8281 107.95 94.1192 109.304 92.9889C112.21 90.4425 113.845 87.5323 115.48 84.3492C116.479 82.3485 117.296 79.9839 117.478 77.6194C117.659 75.1639 116.751 73.345 115.934 72.4356C114.208 70.4348 113.028 69.4344 109.849 68.8887C107.579 68.434 106.217 68.3431 103.946 68.525C101.767 68.6159 96.5905 69.9801 94.6834 70.7076C93.4574 71.1623 92.3223 71.708 91.1871 72.2537C90.0519 72.7993 88.9168 73.345 87.6908 73.7997C87.3606 73.92 86.9113 74.1495 86.4217 74.3997C85.4301 74.9063 84.2729 75.4976 83.6042 75.4367C83.0089 75.3516 82.1747 75.9842 81.7727 76.289L81.6971 76.3462C81.0614 76.7099 81.243 78.7107 82.3328 79.0745C83.4225 79.4383 86.7826 78.256 86.7826 78.256C86.5102 80.2568 86.1923 81.6209 85.8745 82.9851C85.5566 84.3492 85.2388 85.7134 84.9664 87.7142C84.7847 89.1693 84.5123 90.5562 84.2399 91.9431C83.9674 93.3299 83.695 94.7169 83.5133 96.172C83.382 97.1367 83.314 97.7842 83.2482 98.4102C83.1776 99.0826 83.1096 99.7302 82.9685 100.719C81.7243 100.968 81.6923 100.99 80.8658 101.546C80.7874 101.599 80.7018 101.657 80.6073 101.72C79.2451 102.72 79.9716 103.902 81.4246 106.085C80.9846 109.61 80.4261 113.788 79.9405 117.42L79.9402 117.423C79.8246 118.288 79.7131 119.122 79.6084 119.908C79.5021 120.76 79.3959 121.407 79.3071 121.947C79.0164 123.718 78.9127 124.349 79.6084 127.275C79.9716 128.73 83.4225 128.366 83.695 127.911C83.717 127.878 83.7404 127.844 83.7644 127.809C83.9387 127.552 84.149 127.242 84.149 127.002C84.2388 126.328 84.2177 126.342 84.1843 126.365C84.1501 126.388 84.1031 126.419 84.149 125.729C84.2852 124.774 84.4441 123.706 84.603 122.637C84.762 121.568 84.9209 120.5 85.0572 119.545C85.2388 118.317 85.5566 116.271 85.8744 114.225C86.1922 112.179 86.5102 110.132 86.6918 108.904C87.5672 109.693 88.5457 110.576 89.558 111.489L89.5715 111.501C91.706 113.427 93.9895 115.488 95.7732 117.089C97.5894 118.726 99.6782 120.545 101.585 122.182C102.357 122.819 103.152 123.41 103.946 124.001C104.741 124.592 105.536 125.183 106.308 125.82C109.486 128.366 112.12 130.458 115.48 132.732C118.579 134.773 119.847 135.422 122.771 136.916C123.102 137.086 123.455 137.266 123.835 137.461C126.831 138.916 129.374 139.916 132.28 137.552C133.37 136.733 133.461 135.369 132.825 135.278C132.546 135.208 132.24 135.313 131.876 135.437C131.293 135.637 130.562 135.887 129.556 135.551C128.829 135.278 126.831 134.459 126.105 134.005C123.017 132.004 119.748 129.73 116.479 127.366C114.572 126.002 104.855 118.635 102.675 116.816C101.653 115.998 99.9165 114.207 98.6139 112.864C98.1797 112.417 97.7938 112.019 97.4986 111.723C96.0676 110.29 94.935 109.412 93.5751 108.358C92.9501 107.873 92.2769 107.351 91.5049 106.721C90.8692 106.176 89.9611 105.266 89.2346 104.539C89.6887 104.266 91.3233 103.629 91.5957 103.538C92.8671 102.856 94.0704 102.243 95.2736 101.629C96.4769 101.015 97.6802 100.401 98.9516 99.7188ZM87.9632 99.5369C87.9632 99.5369 88.1448 97.809 88.2356 97.0814C88.4447 95.7414 88.6923 94.4206 88.9429 93.0836C89.2366 91.5171 89.5345 89.9281 89.7795 88.2598C90.0456 86.483 90.2468 85.4872 90.4464 84.499C90.6555 83.4639 90.8629 82.437 91.1417 80.5296C91.2693 79.379 91.4419 78.6776 91.6593 77.794C91.7512 77.4205 91.8511 77.0143 91.959 76.528C92.0498 76.2552 95.3191 74.8001 97.1354 74.1635C97.6301 73.9866 98.0733 73.8165 98.4863 73.658C100.196 73.0019 101.389 72.5442 103.583 72.6174C103.988 72.6487 104.415 72.6692 104.848 72.69C105.677 72.7298 106.531 72.7709 107.306 72.8903C109.032 73.1631 111.575 74.3454 112.12 75.2548C112.392 75.6186 112.664 78.8016 112.483 79.2564C111.393 82.7122 110.757 84.1674 108.124 87.1685C106.872 88.3127 105.817 89.1305 104.702 89.9935C103.957 90.5708 103.185 91.1685 102.312 91.8976C100.586 93.3527 96.7721 95.4444 96.5905 95.5354C94.2293 96.9905 87.9632 99.5369 87.9632 99.5369Z" fill="currentColor"/>
<path d="M15.156 57.2423C14.0937 58.2007 12.8315 59.3396 11.3166 59.3396C11.1337 59.3396 10.9917 59.3704 10.8666 59.3975C10.6191 59.4511 10.4376 59.4904 10.136 59.2487C9.95437 59.0668 9.86356 58.794 9.86356 58.4302C9.95437 57.3389 10.4993 56.0656 11.0441 55.429C11.698 54.7015 12.3228 53.9739 12.9476 53.2464C13.8848 52.155 14.822 51.0637 15.8572 49.9724C16.4303 49.4427 16.8964 48.8272 17.3801 48.1885C17.8929 47.5113 18.4255 46.8079 19.1265 46.1527C19.6714 45.6071 20.4887 44.6067 21.2152 43.6972C21.6693 43.1516 22.5775 41.9693 22.5775 41.9693C22.5775 41.9693 20.6704 39.4229 21.4877 38.0587C22.305 36.6945 23.4856 36.6945 24.6662 36.7855C25.7559 36.8764 26.1192 37.513 26.1192 37.513C26.1192 37.513 29.8425 33.0568 30.4782 32.4202C31.7967 31.0398 32.4033 30.5308 33.3419 29.743C33.8256 29.3371 34.3976 28.8571 35.2005 28.1458C35.3411 28.0307 35.4816 27.9119 35.6233 27.7921C36.4895 27.0603 37.4028 26.2885 38.6514 26.0541C39.1963 26.0541 39.7412 26.3269 40.0136 26.7816C40.3769 27.3273 40.1953 27.6911 39.832 28.2367C39.6933 28.3757 39.6075 28.5677 39.5343 28.7317C39.5116 28.7824 39.4902 28.8304 39.4688 28.8733C38.5772 30.659 37.5148 31.6914 36.4492 32.7268C35.778 33.3789 35.1057 34.0322 34.474 34.8757C33.3894 36.3498 31.3795 38.6181 29.9666 40.2127C29.7233 40.4872 29.4978 40.7418 29.2977 40.9689L30.115 42.1512L38.1066 53.792C38.2428 53.9739 38.379 54.1785 38.5152 54.3832C38.6514 54.5878 38.7877 54.7924 38.9239 54.9743C38.9726 55.0474 39.0147 55.114 39.0538 55.1758C39.1607 55.3446 39.245 55.4778 39.378 55.6109C39.7412 56.0656 40.0137 56.4294 40.2861 56.8841C40.5585 57.2934 40.8537 57.7027 41.1488 58.1119C41.444 58.5212 41.7391 58.9304 42.0116 59.3396L43.1013 60.9766C43.3764 61.4588 43.7036 61.9409 44.004 62.3835C44.1003 62.5254 44.1938 62.6631 44.2819 62.7955C44.7587 63.5458 45.0822 63.9892 45.4057 64.4326C45.5136 64.5803 45.6214 64.7281 45.7349 64.8872C46.1162 65.3454 46.5615 65.9959 47.2858 67.0542C47.4242 67.2563 47.5726 67.4732 47.7328 67.7065C47.8236 67.8429 47.8917 67.9566 47.9598 68.0703C48.0279 68.1839 48.096 68.2976 48.1869 68.434C48.2894 68.571 48.3791 68.708 48.4657 68.8401C48.609 69.0589 48.7435 69.2643 48.9134 69.4344C49.3674 69.9801 49.9123 70.5258 50.4572 71.0714C51.1837 71.799 51.9102 72.6175 52.6367 73.436C53.2905 74.2362 53.7119 74.8037 54.1333 75.3712C54.2386 75.5131 54.344 75.655 54.453 75.8005C54.5774 75.9749 54.695 76.1494 54.8151 76.3275C55.1334 76.7996 55.4694 77.298 55.9968 77.8922C56.6325 78.6198 57.359 79.3473 58.0855 79.984L58.1764 80.0749C59.2661 81.1662 58.8121 82.4394 58.5396 83.167C58.1764 83.9855 56.9958 84.4402 56.3601 84.6221C56.0876 84.713 55.7244 84.7131 55.452 84.7131C53.9989 84.7131 52.9092 83.8036 52.001 82.8032C51.1837 81.8028 50.3664 80.8025 49.5491 79.893C48.4593 78.6198 47.2787 77.2556 46.0982 75.9824C43.1318 72.8318 41.3222 69.9485 39.3481 66.8033L39.2871 66.7061C38.5609 65.5242 37.7438 64.2514 36.9268 62.9786C34.6564 59.5228 29.3885 51.7003 27.1181 48.4263L25.6651 46.3346C25.6651 46.3346 24.3029 47.9716 23.6672 48.6082C23.4521 48.8237 23.1662 49.0816 22.8766 49.3429C22.4326 49.7435 21.98 50.1519 21.7601 50.4271C20.9133 51.578 20.2679 52.1641 19.4751 52.884C19.0776 53.245 18.6431 53.6395 18.1276 54.1558C17.7797 54.5042 17.4646 54.8692 17.1475 55.2365C16.7197 55.7321 16.288 56.2322 15.7664 56.7023C15.5706 56.8682 15.3672 57.0517 15.156 57.2423Z" fill="currentColor"/>
</svg>
