<svg width="19" height="24" viewBox="0 0 19 24" fill="none" xmlns="http://www.w3.org/2000/svg">
<g clip-path="url(#clip0_5837_17742)">
<path d="M17.3018 4.99977C17.5669 4.99977 17.8213 5.10523 18.0088 5.29274C18.1963 5.48028 18.3018 5.73455 18.3018 5.99977V17.9998C18.3018 18.5521 17.854 18.9998 17.3018 18.9998H1.30176C0.749473 18.9998 0.301758 18.5521 0.301758 17.9998V5.99977L0.306641 5.89723C0.358027 5.39317 0.784132 4.99978 1.30176 4.99977C6.63532 4.99964 11.9685 5.00045 17.3018 4.99977ZM10.8223 13.9539C10.8026 13.9666 10.7822 13.9787 10.7617 13.99C9.89673 14.4665 8.89734 14.4969 8.01562 14.0798L7.8418 13.99C7.82131 13.9787 7.80089 13.9666 7.78125 13.9539L2.30176 10.409V16.9998H16.3018V10.409L10.8223 13.9539ZM2.30176 8.02614L8.82422 12.2459C9.13538 12.4109 9.46713 12.4106 9.77832 12.2459L16.3018 8.02614V6.99977C11.6351 7.00022 6.96823 6.99974 2.30176 6.99977V8.02614Z" fill="#010101"/>
</g>
<defs>
<clipPath id="clip0_5837_17742">
<rect width="18" height="24" fill="white" transform="translate(0.300781)"/>
</clipPath>
</defs>
</svg>
