<svg width="20" height="24" viewBox="0 0 20 24" fill="none" xmlns="http://www.w3.org/2000/svg">
<g clip-path="url(#clip0_1926_1699)">
<path d="M9.99987 5C14.4362 5 18.2453 7.74545 19.4559 11.708C19.5164 11.906 19.5141 12.1179 19.4491 12.3145C18.1472 16.2475 14.3577 19 9.99987 19C5.64203 19 1.85253 16.2475 0.550649 12.3145C0.483117 12.1104 0.483117 11.8896 0.550649 11.6855C1.85253 7.7525 5.64203 5 9.99987 5ZM9.99987 7C6.60416 7 3.67926 9.06964 2.56041 12C3.67926 14.9304 6.60416 17 9.99987 17C13.3999 17 16.3266 14.9246 17.4422 11.9883C16.4058 9.08028 13.4954 7 9.99987 7ZM11.6844 12C11.6844 11.1352 11.0095 10.4287 9.99987 10.4287C8.99021 10.4287 8.3153 11.1352 8.3153 12C8.3153 12.8648 8.99021 13.5713 9.99987 13.5713C11.0095 13.5713 11.6844 12.8648 11.6844 12ZM13.6844 12C13.6844 14.0494 12.0323 15.5713 9.99987 15.5713C7.96742 15.5713 6.3153 14.0494 6.3153 12C6.3153 9.95055 7.96742 8.42871 9.99987 8.42871C12.0323 8.42871 13.6844 9.95055 13.6844 12Z" fill="#010101"/>
</g>
<defs>
<clipPath id="clip0_1926_1699">
<rect width="18.9996" height="24" fill="white" transform="translate(0.5)"/>
</clipPath>
</defs>
</svg>
