<svg width="20" height="24" viewBox="0 0 20 24" fill="none" xmlns="http://www.w3.org/2000/svg">
<g clip-path="url(#clip0_1926_1701)">
<path d="M1.23739 3.29494C1.62666 2.90345 2.25976 2.90189 2.65146 3.29103L5.33212 5.95412C6.72994 5.21666 8.28831 4.77736 9.99911 4.77736C14.4598 4.77736 18.2566 7.63938 19.4581 11.7178C19.5134 11.9057 19.5125 12.1057 19.4552 12.293C18.8922 14.1305 17.8103 15.7101 16.4171 16.8779L18.8458 19.291C19.2375 19.6803 19.2399 20.3133 18.8507 20.7051C18.4614 21.0968 17.8284 21.0982 17.4366 20.709L14.4151 17.708C14.3102 17.6601 14.2117 17.5948 14.1261 17.5098L1.2413 4.709C0.849915 4.31972 0.848291 3.6866 1.23739 3.29494ZM2.14364 8.71681C2.48411 8.28218 3.11218 8.20563 3.54697 8.54591C3.98183 8.88637 4.05832 9.51534 3.71786 9.95021C3.20204 10.6091 2.78685 11.2896 2.54599 11.9961C3.57954 15.0599 6.51199 17.2227 9.99911 17.2227C10.5326 17.2227 10.9943 17.1474 11.5362 17.0576C12.0808 16.9677 12.5953 17.3363 12.6856 17.8809C12.7759 18.4257 12.4073 18.941 11.8624 19.0313C11.3307 19.1193 10.7182 19.2227 9.99911 19.2227C5.53838 19.2227 1.74166 16.3606 0.540129 12.2822C0.487644 12.1039 0.486032 11.9146 0.535246 11.7354C0.851588 10.5831 1.47204 9.57465 2.14364 8.71681ZM11.6837 12C11.6837 11.0474 10.9741 10.333 9.99911 10.333C9.91698 10.333 9.83716 10.3405 9.75888 10.3516L11.6642 12.2442C11.6748 12.1655 11.6837 12.0842 11.6837 12ZM13.6837 12C13.6837 12.5804 13.548 13.1922 13.253 13.7344L14.9893 15.46C16.0865 14.5845 16.9583 13.3913 17.4474 11.9932C16.4105 8.93526 13.482 6.77736 9.99911 6.77736C8.86963 6.77736 7.81706 7.01747 6.83603 7.44728L8.2081 8.81056C8.74529 8.49795 9.3462 8.33302 9.99911 8.33302C12.0663 8.33302 13.6837 9.93045 13.6837 12Z" fill="#010101"/>
</g>
<defs>
<clipPath id="clip0_1926_1701">
<rect width="18.9994" height="24" fill="white" transform="translate(0.499512)"/>
</clipPath>
</defs>
</svg>
