<svg width="16" height="24" viewBox="0 0 16 24" fill="none" xmlns="http://www.w3.org/2000/svg">
<g clip-path="url(#clip0_1926_1704)">
<path d="M11.1245 12.667C12.2462 12.667 13.2568 13.3402 13.6724 14.333H15.4995V16.333H13.6724C13.2569 17.3261 12.2465 18 11.1245 18C10.0026 18 8.99213 17.3261 8.57666 16.333H0.499512V14.333H8.57666C8.99227 13.3402 10.0028 12.667 11.1245 12.667ZM11.1245 14.667C10.6679 14.667 10.3747 15.0141 10.3745 15.333C10.3745 15.652 10.6678 16 11.1245 16C11.5813 16 11.8745 15.652 11.8745 15.333C11.8743 15.0141 11.5811 14.667 11.1245 14.667ZM5.87451 6C6.99645 6 8.0069 6.67392 8.42236 7.66699H15.4995V9.66699H8.42236C8.00675 10.6598 6.99624 11.333 5.87451 11.333C4.75278 11.333 3.74227 10.6598 3.32666 9.66699H0.499512V7.66699H3.32666C3.74213 6.67392 4.75257 6 5.87451 6ZM5.87451 8C5.41776 8 5.12451 8.34803 5.12451 8.66699L5.13818 8.78711C5.20066 9.06725 5.47497 9.33301 5.87451 9.33301C6.33111 9.33301 6.62431 8.98587 6.62451 8.66699C6.62451 8.34803 6.33126 8 5.87451 8Z" fill="#010101"/>
</g>
<defs>
<clipPath id="clip0_1926_1704">
<rect width="15" height="24" fill="white" transform="translate(0.499512)"/>
</clipPath>
</defs>
</svg>
