<svg width="18" height="24" viewBox="0 0 18 24" fill="none" xmlns="http://www.w3.org/2000/svg">
<g clip-path="url(#clip0_1926_1677)">
<path d="M8.5 7C8.5 6.72961 8.64554 6.48016 8.88092 6.3471C9.1163 6.21404 9.40508 6.21798 9.63675 6.35741L17.6367 11.1722C17.8583 11.3056 17.9956 11.5437 17.9999 11.8023C18.0042 12.0609 17.875 12.3035 17.6579 12.4442L9.65792 17.6294C9.42727 17.7789 9.13333 17.7902 8.89184 17.659C8.65035 17.5277 8.5 17.2749 8.5 17V13.1947L1.65792 17.6294C1.42727 17.7789 1.13333 17.7902 0.891838 17.659C0.650347 17.5277 0.5 17.2749 0.5 17V7C0.5 6.72961 0.645538 6.48016 0.88092 6.3471C1.1163 6.21404 1.40508 6.21798 1.63675 6.35741L8.5 10.4881V7Z" fill="#010101"/>
</g>
<defs>
<clipPath id="clip0_1926_1677">
<rect width="17.5" height="24" fill="white" transform="translate(0.5)"/>
</clipPath>
</defs>
</svg>
