<svg width="16" height="24" viewBox="0 0 16 24" fill="none" xmlns="http://www.w3.org/2000/svg">
<g clip-path="url(#clip0_1926_1685)">
<path d="M6.18555 14.625L2.56055 18.25H5V19.75H0V14.75H1.5V17.1895L5.125 13.5645L6.18555 14.625ZM14 17.1895V14.75H15.5V19.75H10.5V18.25H12.9395L9.31445 14.625L10.375 13.5645L14 17.1895ZM0 4.25H5V5.75H2.56055L6.18555 9.375L5.125 10.4355L1.5 6.81055V9.25H0V4.25ZM15.5 9.25H14V6.81055L10.375 10.4355L9.31445 9.375L12.9395 5.75H10.5V4.25H15.5V9.25Z" fill="#010101"/>
</g>
<defs>
<clipPath id="clip0_1926_1685">
<rect width="15.5" height="24" fill="white"/>
</clipPath>
</defs>
</svg>
