<svg width="10" height="24" viewBox="0 0 10 24" fill="none" xmlns="http://www.w3.org/2000/svg">
<g clip-path="url(#clip0_1926_1683)">
<path d="M3.10059 6.50977C3.32855 6.55629 3.5 6.75829 3.5 7V17C3.5 17.2761 3.27614 17.5 3 17.5H1C0.723858 17.5 0.5 17.2761 0.5 17V7L0.509766 6.89941C0.556292 6.67145 0.758287 6.5 1 6.5H3L3.10059 6.50977Z" fill="#010101"/>
<path d="M9.10059 6.50977C9.32855 6.55629 9.5 6.75829 9.5 7V17C9.5 17.2761 9.27614 17.5 9 17.5H7C6.72386 17.5 6.5 17.2761 6.5 17V7L6.50977 6.89941C6.55629 6.67145 6.75829 6.5 7 6.5H9L9.10059 6.50977Z" fill="#010101"/>
</g>
<defs>
<clipPath id="clip0_1926_1683">
<rect width="9" height="24" fill="white" transform="translate(0.5)"/>
</clipPath>
</defs>
</svg>
