<svg width="19" height="24" viewBox="0 0 19 24" fill="none" xmlns="http://www.w3.org/2000/svg">
<g clip-path="url(#clip0_5837_17752)">
<path fill-rule="evenodd" clip-rule="evenodd" d="M8.57651 6.82937C9.10387 7.41389 8.93667 8.07609 8.47037 8.70441C8.35982 8.85338 8.23239 9.00016 8.07848 9.1619C8.00461 9.23953 7.94701 9.29791 7.82652 9.41851C7.55288 9.69239 7.32285 9.92252 7.13642 10.1089C7.04602 10.1993 7.66326 11.4326 8.86115 12.6316C10.0584 13.8299 11.2918 14.4475 11.3826 14.3566L12.0722 13.6666C12.452 13.2865 12.6531 13.1032 12.9294 12.9219C13.504 12.545 14.1306 12.4426 14.6592 12.9151C16.3848 14.1494 17.3613 14.9068 17.8397 15.4038C18.7729 16.3733 18.6506 17.8655 17.845 18.7169C17.5657 19.0121 17.2115 19.3664 16.7932 19.7696C14.2628 22.3012 8.92252 20.7606 4.82976 16.6642C0.736074 12.5669 -0.803854 7.22664 1.72123 4.70045C2.17456 4.24005 2.32402 4.09068 2.76552 3.65569C3.58752 2.84584 5.14881 2.71903 6.09791 3.6565C6.59714 4.14961 7.39305 5.17356 8.57651 6.82937ZM13.3444 14.9392L12.6547 15.6292C11.4822 16.8022 9.48554 15.8024 7.58879 13.9039C5.69073 12.0042 4.6919 10.0085 5.86474 8.83585C6.05091 8.6497 6.28072 8.41979 6.55415 8.14612C6.66447 8.0357 6.71494 7.98455 6.77551 7.9209C6.85804 7.83417 6.92585 7.758 6.98015 7.6906C5.93132 6.22974 5.21834 5.31692 4.83398 4.93727C4.63548 4.7412 4.19101 4.7773 4.02783 4.93807C3.59263 5.36684 3.44959 5.5098 2.99809 5.96831C1.37421 7.59293 2.61734 11.904 6.10213 15.3918C9.58582 18.8786 13.8966 20.1222 15.5329 18.4854C15.9447 18.0883 16.2803 17.7525 16.5386 17.4796C16.7252 17.2823 16.7586 16.8753 16.5439 16.6522C16.1863 16.2807 15.3108 15.5982 13.7991 14.5127C13.6889 14.6014 13.5534 14.73 13.3444 14.9392Z" fill="#010101"/>
</g>
<defs>
<clipPath id="clip0_5837_17752">
<rect width="18" height="24" fill="white" transform="translate(0.499023)"/>
</clipPath>
</defs>
</svg>
