<svg width="54" height="37" viewBox="0 0 54 37" fill="none" xmlns="http://www.w3.org/2000/svg">
<path d="M18.2676 1.37793C15.8647 2.88218 13.626 4.83287 11.5508 7.22852C9.72261 9.3456 7.16023 13.428 9.1748 16.2539C11.0862 14.8611 13.2162 14.165 15.5645 14.165C22.0359 14.1651 25.6406 19.4771 25.6406 24.7783C25.6404 30.7439 20.3975 36.3104 14.2539 36.3105C5.37388 36.3105 0.000184763 28.0045 0 19.6807C0 9.87908 9.17475 2.9369 16.7275 0L18.2676 1.37793ZM46.627 1.37793C44.224 2.88219 41.9844 4.83284 39.9092 7.22852C38.081 9.34569 35.5197 13.4281 37.5342 16.2539C39.4455 14.8611 41.5756 14.165 43.9238 14.165C50.3951 14.1652 53.999 19.4772 53.999 24.7783C53.9988 30.7438 48.7568 36.3103 42.6133 36.3105C33.7332 36.3105 28.3596 28.0045 28.3594 19.6807C28.3594 9.87908 37.5341 2.93689 45.0869 0L46.627 1.37793Z" fill="currentColor"/>
</svg>
