<svg width="18" height="24" viewBox="0 0 18 24" fill="none" xmlns="http://www.w3.org/2000/svg">
    <path d="M8.90077 3C13.5251 3.0002 17.2312 6.4957 17.7924 10.873C17.8625 11.4208 17.4749 11.922 16.9271 11.9922C16.3795 12.0622 15.8792 11.6746 15.809 11.127C15.3701 7.70462 12.476 5.0002 8.90077 5C6.50444 5 4.44299 6.19405 3.18202 8H5.90077C6.45287 8.00021 6.90077 8.44785 6.90077 9C6.90077 9.55215 6.45287 9.99979 5.90077 10H0.500375V4C0.500375 3.44772 0.948091 3 1.50038 3C2.05266 3 2.50037 3.44772 2.50038 4V5.69824C4.11318 4.04596 6.35532 3 8.90077 3ZM17.3002 20C17.3002 20.5523 16.8525 21 16.3002 21C15.748 20.9999 15.3002 20.5522 15.3002 20V18.2783C13.6618 19.9456 11.3879 20.9999 8.90077 21C4.2762 21 0.569402 17.5044 0.00818757 13.127C-0.061896 12.5792 0.325703 12.078 0.873422 12.0078C1.42113 11.9377 1.92234 12.3253 1.99256 12.873C2.43146 16.2955 5.32542 19 8.90077 19C11.2208 18.9999 13.329 17.8025 14.6097 16H11.9008C11.3485 16 10.9008 15.5523 10.9008 15C10.9008 14.4477 11.3485 14 11.9008 14H17.3002V20Z" fill="#010101"/>
</svg>
