<svg width="19" height="24" viewBox="0 0 19 24" fill="none" xmlns="http://www.w3.org/2000/svg">
<g clip-path="url(#clip0_1926_1675)">
<path d="M17.1642 6.3571C17.3958 6.21772 17.6847 6.21429 17.92 6.34734C18.1552 6.48039 18.3008 6.72944 18.3009 6.99968V16.9997C18.3009 17.2745 18.1507 17.5276 17.9093 17.6589C17.6678 17.7901 17.3733 17.7791 17.1427 17.6296L10.3009 13.195V16.9997C10.3009 17.2745 10.1507 17.5276 9.90928 17.6589C9.66779 17.7901 9.37333 17.7791 9.14268 17.6296L1.14268 12.444C0.925846 12.3034 0.796653 12.0608 0.800882 11.8024C0.805186 11.5439 0.942681 11.3059 1.16416 11.1725L9.16416 6.3571C9.39582 6.21772 9.68467 6.21429 9.92002 6.34734C10.1552 6.48039 10.3008 6.72944 10.3009 6.99968V10.488L17.1642 6.3571Z" fill="#010101"/>
</g>
<defs>
<clipPath id="clip0_1926_1675">
<rect width="17.5001" height="24" fill="white" transform="translate(0.800781)"/>
</clipPath>
</defs>
</svg>
