<svg width="16" height="24" viewBox="0 0 16 24" fill="none" xmlns="http://www.w3.org/2000/svg">
<path fill-rule="evenodd" clip-rule="evenodd" d="M6.19263 5.94953C3.83568 5.94953 1.94953 7.83285 1.94953 10.1621C1.94953 12.4914 3.83568 14.3747 6.19263 14.3747C8.54957 14.3747 10.4357 12.4914 10.4357 10.1621C10.4357 7.90293 8.53984 5.94953 6.19263 5.94953ZM0 10.1621C0 6.74539 2.76978 4 6.19263 4C9.6252 4 12.3853 6.83492 12.3853 10.1621C12.3853 11.5364 11.9371 12.8021 11.1786 13.8243L16 18.6174L14.6255 20L9.78432 15.1871C8.77169 15.9037 7.53217 16.3242 6.19263 16.3242C2.76978 16.3242 0 13.5788 0 10.1621Z" fill="#010101"/>
</svg>
