<svg width="19" height="24" viewBox="0 0 19 24" fill="none" xmlns="http://www.w3.org/2000/svg">
<g clip-path="url(#clip0_1926_1669)">
<path fill-rule="evenodd" clip-rule="evenodd" d="M11.1657 6.66667C11.1657 4.60327 12.769 3 14.8324 3C16.8958 3 18.499 4.60327 18.499 6.66667C18.499 8.73006 16.8958 10.3333 14.8324 10.3333C13.7574 10.3333 12.8208 9.87518 12.1596 9.16551L7.77908 11.3558C7.81457 11.5604 7.83236 11.7738 7.83236 12C7.83236 12.2262 7.81457 12.4396 7.77908 12.6442L12.1596 14.8345C12.8208 14.1248 13.7574 13.6667 14.8324 13.6667C16.8958 13.6667 18.499 15.2699 18.499 17.3333C18.499 19.3967 16.8958 21 14.8324 21C12.769 21 11.1657 19.3967 11.1657 17.3333C11.1657 17.077 11.1885 16.8372 11.2341 16.6078L6.89408 14.4378C6.23029 15.1821 5.27117 15.6667 4.16569 15.6667C2.10229 15.6667 0.499023 14.0634 0.499023 12C0.499023 9.9366 2.10229 8.33333 4.16569 8.33333C5.27116 8.33333 6.23029 8.81788 6.89407 9.56222L11.2341 7.39221C11.1885 7.16285 11.1657 6.923 11.1657 6.66667ZM14.8324 5C13.8735 5 13.1657 5.70784 13.1657 6.66667C13.1657 6.95687 13.2189 7.15921 13.3268 7.37501C13.6174 7.95629 14.1781 8.33333 14.8324 8.33333C15.7912 8.33333 16.499 7.62549 16.499 6.66667C16.499 5.70784 15.7912 5 14.8324 5ZM4.16569 10.3333C3.20686 10.3333 2.49902 11.0412 2.49902 12C2.49902 12.9588 3.20686 13.6667 4.16569 13.6667C4.81994 13.6667 5.38062 13.2896 5.67126 12.7083C5.77916 12.4925 5.83236 12.2902 5.83236 12C5.83236 11.7098 5.77916 11.5075 5.67126 11.2917C5.38062 10.7104 4.81994 10.3333 4.16569 10.3333ZM14.8324 15.6667C14.1781 15.6667 13.6174 16.0437 13.3268 16.625C13.2189 16.8408 13.1657 17.0431 13.1657 17.3333C13.1657 18.2922 13.8735 19 14.8324 19C15.7912 19 16.499 18.2922 16.499 17.3333C16.499 16.3745 15.7912 15.6667 14.8324 15.6667Z" fill="#010101"/>
</g>
<defs>
<clipPath id="clip0_1926_1669">
<rect width="18" height="24" fill="white" transform="translate(0.499023)"/>
</clipPath>
</defs>
</svg>
