<svg width="17" height="24" viewBox="0 0 17 24" fill="none" xmlns="http://www.w3.org/2000/svg">
<g clip-path="url(#clip0_1926_1702)">
<path d="M2.30791 14.6298H0.887656C0.355062 14.6298 0 14.2792 0 13.7532V10.2468C0 9.72081 0.355062 9.37017 0.887656 9.37017H2.30791L6.47989 5.25009C7.01248 4.72413 7.9889 5.07477 7.9889 5.86372V18.1363C7.9889 18.9252 7.01248 19.2759 6.47989 18.7499L2.30791 14.6298Z" fill="#010101"/>
<path fill-rule="evenodd" clip-rule="evenodd" d="M13.1363 5.86271C13.4273 5.56799 13.9022 5.56502 14.1969 5.85607C17.601 9.21784 17.601 14.6945 14.1969 18.0563C13.9022 18.3474 13.4273 18.3444 13.1363 18.0497C12.8452 17.755 12.8482 17.2801 13.1429 16.989C15.9524 14.2145 15.9524 9.69785 13.1429 6.92335C12.8482 6.6323 12.8452 6.15743 13.1363 5.86271ZM10.5621 8.40488C10.8531 8.11016 11.328 8.10719 11.6227 8.39824C13.6953 10.4451 13.6953 13.6426 11.6227 15.6895C11.328 15.9805 10.8531 15.9775 10.5621 15.6828C10.271 15.3881 10.274 14.9132 10.5687 14.6222C12.0467 13.1626 12.0467 10.9251 10.5687 9.46552C10.274 9.17447 10.271 8.6996 10.5621 8.40488Z" fill="#010101"/>
</g>
<defs>
<clipPath id="clip0_1926_1702">
<rect width="16.75" height="24" fill="white"/>
</clipPath>
</defs>
</svg>
