<svg width="18" height="24" viewBox="0 0 18 24" fill="none" xmlns="http://www.w3.org/2000/svg">
<g clip-path="url(#clip0_1926_1713)">
<path d="M3.06111 14.6298H1.63889C1.10556 14.6298 0.75 14.2792 0.75 13.7532V10.2468C0.75 9.72081 1.10556 9.37017 1.63889 9.37017H3.06111L7.23889 5.25009C7.77222 4.72413 8.75 5.07477 8.75 5.86372V18.1363C8.75 18.9252 7.77222 19.2759 7.23889 18.7499L3.06111 14.6298Z" fill="#010101"/>
<path fill-rule="evenodd" clip-rule="evenodd" d="M12.6603 9.72014C12.9512 9.42521 13.426 9.42191 13.721 9.71276L14.9721 10.9466L16.2233 9.71276C16.5182 9.42191 16.993 9.42521 17.2839 9.72014C17.5747 10.0151 17.5714 10.4899 17.2765 10.7808L16.0402 12L17.2765 13.2192C17.5714 13.5101 17.5747 13.9849 17.2839 14.2798C16.993 14.5748 16.5182 14.5781 16.2233 14.2872L14.9721 13.0533L13.721 14.2872C13.426 14.5781 12.9512 14.5748 12.6603 14.2798C12.3695 13.9849 12.3728 13.5101 12.6677 13.2192L13.904 12L12.6677 10.7808C12.3728 10.4899 12.3695 10.0151 12.6603 9.72014Z" fill="#010101"/>
</g>
<defs>
<clipPath id="clip0_1926_1713">
<rect width="16.7499" height="24" fill="white" transform="translate(0.75)"/>
</clipPath>
</defs>
</svg>
