<svg width="18" height="18" viewBox="0 0 18 18" fill="none" xmlns="http://www.w3.org/2000/svg">
<path d="M7.13936 6.00029C8.76216 6.00045 10.0774 7.31568 10.0775 8.93848C10.0775 10.5614 8.76226 11.8774 7.13936 11.8775C5.51631 11.8775 4.20029 10.5615 4.20029 8.93848C4.20046 7.31558 5.51642 6.00029 7.13936 6.00029Z" fill="currentColor"/>
<path fill-rule="evenodd" clip-rule="evenodd" d="M9 0C13.9706 0 18 4.02944 18 9C18 13.9706 13.9706 18 9 18C4.02944 18 0 13.9706 0 9C0 4.02944 4.02944 0 9 0ZM9 2.7C5.52061 2.7 2.7 5.52061 2.7 9C2.7 12.4794 5.52061 15.3 9 15.3C12.4794 15.3 15.3 12.4794 15.3 9C15.3 5.52061 12.4794 2.7 9 2.7Z" fill="currentColor"/>
</svg>
